<svg width="13" height="15" viewBox="0 0 13 15" fill="none" xmlns="http://www.w3.org/2000/svg">
<path d="M10.5069 10.7986C9.93413 11.3714 8.82161 12.4839 7.9139 13.3916C7.13286 14.1727 5.86685 14.1724 5.0858 13.3913C4.19498 12.5005 3.10193 11.4075 2.49307 10.7986C0.280101 8.58563 0.280101 4.9977 2.49307 2.78473C4.70604 0.571757 8.29398 0.571757 10.5069 2.78473C12.7199 4.9977 12.7199 8.58563 10.5069 10.7986Z" stroke="#404040" stroke-linecap="round" stroke-linejoin="round"/>
<path d="M8.62501 6.79167C8.62501 7.96527 7.67362 8.91667 6.50001 8.91667C5.3264 8.91667 4.37501 7.96527 4.37501 6.79167C4.37501 5.61806 5.3264 4.66667 6.50001 4.66667C7.67362 4.66667 8.62501 5.61806 8.62501 6.79167Z" stroke="#404040" stroke-linecap="round" stroke-linejoin="round"/>
</svg>
