<svg width="15" height="15" viewBox="0 0 15 15" fill="none" xmlns="http://www.w3.org/2000/svg">
<path d="M1.125 2.54167C1.125 1.75926 1.75926 1.125 2.54167 1.125H4.86446C5.16935 1.125 5.44003 1.3201 5.53645 1.60934L6.5974 4.79219C6.70887 5.1266 6.55748 5.49209 6.24219 5.64974L4.6433 6.44919C5.42405 8.18086 6.81914 9.57595 8.55081 10.3567L9.35026 8.75781C9.50791 8.44252 9.87339 8.29113 10.2078 8.4026L13.3907 9.46355C13.6799 9.55997 13.875 9.83065 13.875 10.1355V12.4583C13.875 13.2407 13.2407 13.875 12.4583 13.875H11.75C5.88197 13.875 1.125 9.11803 1.125 3.25V2.54167Z" stroke="#404040" stroke-linecap="round" stroke-linejoin="round"/>
</svg>
