<svg width="29" height="29" viewBox="0 0 29 29" fill="none" xmlns="http://www.w3.org/2000/svg">
<path d="M3.625 6.04167C3.625 4.70698 4.70698 3.625 6.04167 3.625H10.0041C10.5242 3.625 10.9859 3.95781 11.1504 4.45122L12.9603 9.8808C13.1504 10.4513 12.8922 11.0748 12.3543 11.3437L9.6268 12.7074C10.9587 15.6615 13.3385 18.0413 16.2926 19.3732L17.6563 16.6457C17.9253 16.1078 18.5487 15.8496 19.1192 16.0397L24.5488 17.8496C25.0422 18.0141 25.375 18.4758 25.375 18.9959V22.9583C25.375 24.293 24.293 25.375 22.9583 25.375H21.75C11.7398 25.375 3.625 17.2602 3.625 7.25V6.04167Z" stroke="#404040" stroke-width="1.5" stroke-linecap="round" stroke-linejoin="round"/>
</svg>
