<svg width="26" height="18" viewBox="0 0 26 18" fill="none" xmlns="http://www.w3.org/2000/svg">
<path d="M24.346 2.34556C23.6733 1.18636 22.9432 0.973134 21.4568 0.89205C19.9719 0.794448 16.2379 0.753906 13.0031 0.753906C9.76203 0.753906 6.02653 0.794449 4.54318 0.890549C3.05983 0.973134 2.32823 1.18485 1.64933 2.34556C0.956476 3.50327 0.599976 5.49734 0.599976 9.008C0.599976 9.011 0.599976 9.0125 0.599976 9.0125C0.599976 9.0155 0.599976 9.017 0.599976 9.017V9.02001C0.599976 12.5156 0.956476 14.5247 1.64933 15.6704C2.32823 16.8296 3.05828 17.0399 4.54163 17.1375C6.02653 17.2215 9.76203 17.2711 13.0031 17.2711C16.2379 17.2711 19.9719 17.2215 21.4583 17.139C22.9448 17.0414 23.6748 16.8311 24.3475 15.6719C25.0466 14.5262 25.4 12.5171 25.4 9.02151C25.4 9.02151 25.4 9.017 25.4 9.014C25.4 9.014 25.4 9.011 25.4 9.0095C25.4 5.49734 25.0466 3.50327 24.346 2.34556ZM9.89998 13.5172V4.50781L17.65 9.0125L9.89998 13.5172Z" fill="#333C30"/>
</svg>
